<?xml version="1.0" encoding="utf-8"?>
<!-- Generator: Adobe Illustrator 27.10.0, SVG Export Plug-In . SVG Version: 6.00 Build 0)  -->
<svg version="1.1" id="Layer_2_00000000902194284815534400000010165640924926656181_"
	 xmlns="http://www.w3.org/2000/svg" xmlns:xlink="http://www.w3.org/1999/xlink" x="0px" y="0px" viewBox="0 0 64 64"
	 style="enable-background:new 0 0 64 64;" xml:space="preserve">
<style type="text/css">
	.st0{fill:#3A5CFF;}
	.st1{fill:none;stroke:#6406C1;stroke-linecap:round;stroke-linejoin:round;}
	.st2{fill:none;stroke:#3A5CFF;stroke-linecap:round;stroke-linejoin:round;}
</style>
<g id="Layer_2-2">
	<polygon class="st0" points="29.2,36.2 25.9,55.6 47.2,33.1 32.7,30.6 36.2,10 14.9,32.5 29.4,35 	"/>
</g>
<g id="Layer_1-2">
	<path class="st1" d="M54.3,54.2C48.6,60,40.7,63.5,32,63.5C14.6,63.5,0.5,49.4,0.5,32c0-3.2,0.5-6.2,1.3-9.1"/>
	<path class="st1" d="M9.7,9.8C15.4,4,23.3,0.5,32,0.5c17.4,0,31.5,14.1,31.5,31.5c0,3.2-0.5,6.2-1.3,9.1"/>
	<polygon class="st1" points="28.2,35.2 24.9,54.6 46.2,32.1 31.7,29.6 35.2,9 13.9,31.5 28.4,34 	"/>
	<line class="st2" x1="9.7" y1="14.1" x2="9.7" y2="22.9"/>
	<line class="st2" x1="5.3" y1="18.5" x2="14.1" y2="18.5"/>
	<line class="st2" x1="54.3" y1="39.8" x2="54.3" y2="51.3"/>
	<line class="st2" x1="48.6" y1="45.5" x2="60.1" y2="45.5"/>
	<line class="st1" x1="8.7" y1="13.1" x2="8.7" y2="21.9"/>
	<line class="st1" x1="4.3" y1="17.5" x2="13.1" y2="17.5"/>
	<line class="st1" x1="53.3" y1="38.8" x2="53.3" y2="50.3"/>
	<line class="st1" x1="47.6" y1="44.5" x2="59.1" y2="44.5"/>
</g>
</svg>
