<?xml version="1.0" encoding="UTF-8"?>
<svg width="22px" height="22px" viewBox="0 0 22 22" version="1.1" xmlns="http://www.w3.org/2000/svg" xmlns:xlink="http://www.w3.org/1999/xlink">
    <title>Group</title>
    <g id="Page-2" stroke="none" stroke-width="1" fill="none" fill-rule="evenodd">
        <g id="Desktop-HD-2" transform="translate(-1131.000000, -167.000000)" fill="#6406C1" fill-rule="nonzero">
            <g id="Group" transform="translate(1131.000000, 167.000000)">
                <path d="M9.67935673,0 L12.1495322,0 C12.3691033,0 12.4788889,0.0814814815 12.4788889,0.244444444 L12.4788889,21.7555556 C12.4788889,21.9185185 12.3691033,22 12.1495322,22 L9.67935673,22 C9.45978558,22 9.35,21.9185185 9.35,21.7555556 L9.35,0.244444444 C9.35,0.0814814815 9.45978558,0 9.67935673,0 Z" id="Path" opacity="0"></path>
                <path d="M0.244444444,9.83888889 L20.7777778,9.83888889 C20.9407407,9.83888889 21.0222222,9.94867446 21.0222222,10.1682456 L21.0222222,12.6384211 C21.0222222,12.8579922 20.9407407,12.9677778 20.7777778,12.9677778 L0.244444444,12.9677778 C0.0814814815,12.9677778 0,12.8579922 0,12.6384211 L0,10.1682456 C0,9.94867446 0.0814814815,9.83888889 0.244444444,9.83888889 Z" id="Path"></path>
            </g>
        </g>
    </g>
</svg>