<svg width="40" height="40" viewBox="0 0 40 40" fill="none" xmlns="http://www.w3.org/2000/svg">
<path d="M20 2.5C16.5388 2.5 13.1554 3.52636 10.2775 5.44928C7.39965 7.37221 5.15663 10.1053 3.8321 13.303C2.50757 16.5007 2.16101 20.0194 2.83625 23.4141C3.51149 26.8087 5.1782 29.9269 7.62562 32.3744C10.073 34.8218 13.1912 36.4885 16.5859 37.1637C19.9806 37.839 23.4992 37.4924 26.697 36.1679C29.8947 34.8434 32.6278 32.6003 34.5507 29.7225C36.4736 26.8446 37.5 23.4612 37.5 20C37.5 15.3587 35.6562 10.9075 32.3744 7.62563C29.0925 4.34374 24.6413 2.5 20 2.5V2.5ZM29.3087 21.1188L14.3087 28.6188C14.1181 28.714 13.9063 28.7589 13.6934 28.7493C13.4806 28.7397 13.2737 28.6758 13.0925 28.5637C12.9112 28.4516 12.7617 28.295 12.658 28.1088C12.5543 27.9227 12.4999 27.7131 12.5 27.5V12.5C12.5001 12.287 12.5546 12.0776 12.6584 11.8916C12.7622 11.7056 12.9118 11.5492 13.093 11.4373C13.2742 11.3253 13.481 11.2615 13.6938 11.2519C13.9065 11.2424 14.1182 11.2873 14.3087 11.3825L29.3087 18.8825C29.5161 18.9864 29.6904 19.146 29.8123 19.3433C29.9341 19.5407 29.9987 19.7681 29.9987 20C29.9987 20.2319 29.9341 20.4593 29.8123 20.6567C29.6904 20.854 29.5161 21.0136 29.3087 21.1175V21.1188Z" fill="#170D67"/>
</svg>
