<?xml version="1.0" encoding="utf-8"?>
<!-- Generator: Adobe Illustrator 27.10.0, SVG Export Plug-In . SVG Version: 6.00 Build 0)  -->
<svg version="1.1" id="Layer_2_00000104699629476490279050000012295879332339486126_"
	 xmlns="http://www.w3.org/2000/svg" xmlns:xlink="http://www.w3.org/1999/xlink" x="0px" y="0px" viewBox="0 0 64 64"
	 style="enable-background:new 0 0 64 64;" xml:space="preserve">
<style type="text/css">
	.st0{fill:#3A5CFF;}
	.st1{fill:none;stroke:#6406C1;stroke-linecap:round;stroke-linejoin:round;}
</style>
<g id="Layer_2-2">
	<g>
		<polygon class="st0" points="56.9,64 29.5,64 29.5,49.8 56.9,49.8 64,56.9 		"/>
		<polygon class="st0" points="50.8,45.7 29.5,45.7 29.5,31.5 50.8,31.5 57.9,38.6 		"/>
		<polygon class="st0" points="44.7,27.4 29.5,27.4 29.5,13.2 44.7,13.2 51.8,20.3 		"/>
	</g>
</g>
<g id="Layer_1-2">
	<g id="home">
		<polyline class="st1" points="24.9,56.4 6.6,56.4 6.6,23.9 0.5,23.9 30,0.5 41.2,8.6 		"/>
	</g>
	<g>
		<polygon class="st1" points="55.4,62.5 28,62.5 28,48.3 55.4,48.3 62.5,55.4 		"/>
		<polygon class="st1" points="49.3,44.2 28,44.2 28,30 49.3,30 56.4,37.1 		"/>
		<polygon class="st1" points="43.2,25.9 28,25.9 28,11.7 43.2,11.7 50.3,18.8 		"/>
	</g>
</g>
</svg>
