<?xml version="1.0" encoding="utf-8"?>
<!-- Generator: Adobe Illustrator 27.10.0, SVG Export Plug-In . SVG Version: 6.00 Build 0)  -->
<svg version="1.1" id="Layer_2_00000031906850914778053070000005900667469912601020_"
	 xmlns="http://www.w3.org/2000/svg" xmlns:xlink="http://www.w3.org/1999/xlink" x="0px" y="0px" viewBox="0 0 64 63.6"
	 style="enable-background:new 0 0 64 63.6;" xml:space="preserve">
<style type="text/css">
	.st0{fill:#3A5CFF;}
	.st1{fill:none;stroke:#6406C1;stroke-linecap:round;stroke-linejoin:round;}
</style>
<g id="Layer_2-2">
	<path class="st0" d="M22,44v11.3c0,1-0.8,1.7-1.7,1.7h-2.8c-5,0.2-9.1-4.2-9.1-8.9c0-1.1,0.2-2.2,0.7-3.2l1-1.8
		c0.3-0.5,0.9-0.9,1.5-0.9h8.7C21.2,42.3,22,43,22,44L22,44z"/>
	<path class="st0" d="M47.7,31.4l9.9-5.5c0.8-0.5,1.9-0.2,2.4,0.7l1.4,2.4c2.6,4.3,0.7,10-3.4,12.2c-0.9,0.5-2,0.9-3.1,1h-2
		c-0.6,0-1.2-0.3-1.5-0.9L47,33.8C46.5,32.9,46.9,31.9,47.7,31.4L47.7,31.4z"/>
	<path class="st0" d="M23.4,15l-9.7-5.8c-0.8-0.5-1.1-1.6-0.6-2.4l1.4-2.4C17,0,22.8-1.2,26.9,1.2c0.9,0.5,1.7,1.3,2.4,2.2l1,1.8
		c0.3,0.6,0.3,1.2,0,1.8l-4.5,7.4C25.3,15.3,24.2,15.5,23.4,15z"/>
</g>
<g id="Layer_1-2">
	<path class="st1" d="M23.3,31.5L2,19.6l0.5-0.8c0.3-0.5,0.7-0.8,1.2-0.9l13.1-2.1c0.8-0.1,1.6,0.3,1.9,1.1l5.1,12.4
		c0.2,0.5,0.2,1-0.1,1.5C23.7,30.8,23.3,31.5,23.3,31.5z"/>
	<path class="st1" d="M23,45v11.3c0,1-0.8,1.7-1.7,1.7h-2.8c-5,0.2-9.1-4.2-9.1-8.9c0-1.1,0.2-2.2,0.7-3.2l1-1.8
		c0.3-0.5,0.9-0.9,1.5-0.9h8.7C22.2,43.2,23,44,23,45L23,45z"/>
	<path class="st1" d="M10.6,53.8L1.7,39c-1.6-2.6-1.6-5.9-0.1-8.5l4-7c0.5-0.8,1.5-1.1,2.4-0.7l9.9,5.5c0.8,0.5,1.1,1.5,0.7,2.4
		l-6.9,12.4"/>
	<path class="st1" d="M36.7,38.7l-0.1,24.4h-0.9c-0.5,0-1-0.3-1.3-0.7L26.2,52c-0.5-0.6-0.5-1.5,0-2.2l8.4-10.5
		c0.3-0.4,0.8-0.7,1.3-0.7L36.7,38.7L36.7,38.7z"/>
	<path class="st1" d="M48.7,32.4l9.9-5.5c0.8-0.5,1.9-0.2,2.4,0.7l1.4,2.4c2.6,4.3,0.7,10-3.4,12.2c-0.9,0.5-2,0.9-3.1,1h-2
		c-0.6,0-1.2-0.3-1.5-0.9L48,34.8C47.5,33.9,47.8,32.9,48.7,32.4L48.7,32.4z"/>
	<path class="st1" d="M62.4,38.9l-8.6,15c-1.5,2.7-4.3,4.3-7.4,4.3l-8-0.1c-1,0-1.7-0.8-1.7-1.8l0-11.3c0-1,0.8-1.7,1.7-1.7h14.2"/>
	<path class="st1" d="M35.8,23.3L57,11.2l0.4,0.8c0.2,0.5,0.3,1,0.1,1.5l-5,12.3c-0.3,0.8-1.1,1.2-1.9,1.1l-13.3-2
		c-0.5-0.1-1-0.4-1.2-0.8L35.8,23.3L35.8,23.3z"/>
	<path class="st1" d="M24.4,16l-9.7-5.8c-0.8-0.5-1.1-1.6-0.6-2.4l1.4-2.4C18,1,23.8-0.2,27.9,2.2c0.9,0.5,1.7,1.3,2.4,2.2l1,1.8
		c0.3,0.6,0.3,1.2,0,1.8l-4.5,7.4C26.3,16.3,25.2,16.5,24.4,16z"/>
	<path class="st1" d="M23.1,0.9h17.3c3,0,5.9,1.6,7.4,4.3l4,7c0.5,0.8,0.2,1.9-0.7,2.4l-9.9,5.6c-0.8,0.5-1.9,0.2-2.4-0.6L31.8,7.1"
		/>
</g>
</svg>
