<?xml version="1.0" encoding="UTF-8"?>
<svg id="Layer_2" data-name="Layer 2" xmlns="http://www.w3.org/2000/svg" viewBox="0 0 64 63.58">
  <defs>
    <style>
      .cls-1 {
        fill: none;
        stroke: #6406c1;
        stroke-linecap: round;
        stroke-linejoin: round;
      }

      .cls-2 {
        fill: #00e4a5;
        stroke-width: 0px;
      }
    </style>
  </defs>
  <g id="Layer_2-2" data-name="Layer 2">
    <path class="cls-2" d="m21.98,44v11.3c0,.96-.78,1.74-1.74,1.74h-2.8c-5.03.21-9.07-4.19-9.07-8.91,0-1.07.21-2.16.66-3.21l1-1.78c.31-.55.89-.89,1.52-.89h8.68c.96,0,1.74.79,1.74,1.75Z"/>
    <path class="cls-2" d="m47.69,31.41l9.88-5.49c.84-.47,1.9-.16,2.37.68l1.36,2.44c2.63,4.3.74,9.96-3.38,12.25-.94.52-1.99.86-3.13.98h-2.04c-.63,0-1.21-.35-1.52-.9l-4.21-7.59c-.47-.84-.16-1.9.68-2.37Z"/>
    <path class="cls-2" d="m23.38,15.03l-9.68-5.83c-.82-.5-1.09-1.57-.59-2.39l1.44-2.4C16.97,0,22.82-1.19,26.86,1.24c.92.55,1.74,1.29,2.41,2.23l1.01,1.77c.31.55.31,1.22-.02,1.76l-4.49,7.44c-.5.82-1.57,1.09-2.39.59Z"/>
  </g>
  <g id="Layer_1-2" data-name="Layer 1">
    <path class="cls-1" d="m23.3,31.51L2.02,19.56l.46-.79c.26-.45.72-.77,1.23-.85l13.06-2.09c.8-.13,1.58.31,1.89,1.06l5.11,12.41c.2.48.17,1.03-.08,1.49l-.39.72Z"/>
    <path class="cls-1" d="m22.98,44.99v11.3c0,.96-.78,1.74-1.74,1.74h-2.8c-5.03.21-9.07-4.19-9.07-8.91,0-1.07.21-2.16.66-3.21l1-1.78c.31-.55.89-.89,1.52-.89h8.68c.96,0,1.74.79,1.74,1.75Z"/>
    <path class="cls-1" d="m10.64,53.85L1.73,39.05c-1.59-2.6-1.65-5.87-.15-8.52l3.96-7c.47-.84,1.53-1.13,2.37-.66l9.88,5.55c.84.47,1.13,1.53.67,2.37l-6.92,12.42"/>
    <path class="cls-1" d="m36.74,38.67l-.11,24.41h-.92c-.53-.02-1.02-.27-1.34-.68l-8.17-10.4c-.5-.64-.5-1.53,0-2.16l8.37-10.5c.33-.41.82-.65,1.34-.66h.82Z"/>
    <path class="cls-1" d="m48.68,32.4l9.88-5.49c.84-.47,1.9-.16,2.37.68l1.36,2.44c2.63,4.3.74,9.96-3.38,12.25-.94.52-1.99.86-3.13.98h-2.04c-.63,0-1.21-.35-1.52-.9l-4.21-7.59c-.47-.84-.16-1.9.68-2.37Z"/>
    <path class="cls-1" d="m62.42,38.88l-8.62,14.97c-1.5,2.66-4.33,4.29-7.38,4.27l-8.04-.06c-.96,0-1.73-.79-1.73-1.75l.05-11.33c0-.96.78-1.73,1.74-1.73h14.22"/>
    <path class="cls-1" d="m35.76,23.26l21.22-12.06.44.8c.25.46.29,1.01.09,1.5l-4.95,12.26c-.3.75-1.08,1.19-1.88,1.07l-13.27-2.03c-.52-.08-.97-.39-1.24-.84l-.42-.7Z"/>
    <path class="cls-1" d="m24.37,16.03l-9.68-5.83c-.82-.5-1.09-1.57-.59-2.39l1.44-2.4C17.96.98,23.81-.2,27.85,2.24c.92.55,1.74,1.29,2.41,2.23l1.01,1.77c.31.55.31,1.22-.02,1.76l-4.49,7.44c-.5.82-1.57,1.09-2.39.59Z"/>
    <path class="cls-1" d="m23.15.88h17.28c3.05,0,5.88,1.63,7.38,4.29l3.95,7c.47.84.18,1.9-.66,2.37l-9.86,5.6c-.83.47-1.89.18-2.37-.65l-7.07-12.34"/>
  </g>
</svg>