<?xml version="1.0" encoding="UTF-8"?>
<svg id="Layer_2" data-name="Layer 2" xmlns="http://www.w3.org/2000/svg" viewBox="0 0 63.98 63.98">
  <defs>
    <style>
      .cls-1, .cls-2, .cls-3, .cls-4 {
        fill: none;
      }

      .cls-1, .cls-3, .cls-4 {
        stroke-linecap: round;
        stroke-linejoin: round;
      }

      .cls-1, .cls-4 {
        stroke: #6406c1;
      }

      .cls-2, .cls-5 {
        stroke-width: 0px;
      }

      .cls-3 {
        stroke: #00e4a5;
      }

      .cls-3, .cls-4 {
        stroke-width: .97px;
      }

      .cls-5 {
        fill: #00e4a5;
      }
    </style>
  </defs>
  <g id="Layer_2-2" data-name="Layer 2">
    <path class="cls-2" d="m1.48,22.61V7.69C1.48,4.26,4.26,1.48,7.69,1.48h24.81c3.43,0,6.2,2.78,6.2,6.2v19.84c0,3.42-2.78,6.2-6.2,6.2h-11.16l-7.44,7.44v-7.44h-6.2c-3.42,0-6.2-2.78-6.2-6.2"/>
    <path class="cls-5" d="m63.98,45.42v-14.92c0-3.42-2.78-6.2-6.2-6.2h-24.81c-3.43,0-6.2,2.78-6.2,6.2v19.84c0,3.42,2.78,6.2,6.2,6.2h11.16l7.44,7.44v-7.44h6.2c3.42,0,6.2-2.78,6.2-6.2"/>
    <path class="cls-3" d="m39.19,19.35v-11.16c0-3.42-2.78-6.2-6.2-6.2H8.19c-3.43,0-6.2,2.78-6.2,6.2v19.85c0,3.42,2.78,6.2,6.2,6.2h6.2v7.44l7.44-7.44"/>
  </g>
  <g id="Layer_1-2" data-name="Layer 1">
    <path class="cls-1" d="m62.48,43.92v-14.92c0-3.42-2.78-6.2-6.2-6.2h-24.81c-3.43,0-6.2,2.78-6.2,6.2v19.84c0,3.42,2.78,6.2,6.2,6.2h11.16l7.44,7.44v-7.44h6.2c3.42,0,6.2-2.78,6.2-6.2"/>
    <path class="cls-4" d="m37.69,17.85V6.69c0-3.42-2.78-6.2-6.2-6.2H6.69C3.26.48.48,3.26.48,6.69v19.85c0,3.42,2.78,6.2,6.2,6.2h6.2v7.44l7.44-7.44"/>
    <polyline class="cls-4" points="26.53 11.41 16.61 21.33 11.65 16.37"/>
    <g>
      <line class="cls-4" x1="49.22" y1="34.22" x2="39.3" y2="44.14"/>
      <line class="cls-4" x1="39.3" y1="34.22" x2="49.22" y2="44.14"/>
    </g>
  </g>
</svg>