<?xml version="1.0" encoding="utf-8"?>
<!-- Generator: Adobe Illustrator 27.10.0, SVG Export Plug-In . SVG Version: 6.00 Build 0)  -->
<svg version="1.1" id="Layer_2_00000060029364160762895520000009916162708028208014_"
	 xmlns="http://www.w3.org/2000/svg" xmlns:xlink="http://www.w3.org/1999/xlink" x="0px" y="0px" viewBox="0 0 64 64"
	 style="enable-background:new 0 0 64 64;" xml:space="preserve">
<style type="text/css">
	.st0{fill:none;}
	.st1{fill:#3A5CFF;}
	.st2{fill:none;stroke:#3A5CFF;stroke-width:0.97;stroke-linecap:round;stroke-linejoin:round;}
	.st3{fill:none;stroke:#6406C1;stroke-linecap:round;stroke-linejoin:round;}
	.st4{fill:none;stroke:#6406C1;stroke-width:0.97;stroke-linecap:round;stroke-linejoin:round;}
</style>
<g id="Layer_2-2">
	<path class="st0" d="M1.5,22.6V7.7c0-3.4,2.8-6.2,6.2-6.2h24.8c3.4,0,6.2,2.8,6.2,6.2v19.8c0,3.4-2.8,6.2-6.2,6.2H21.3l-7.4,7.4
		v-7.4H7.7c-3.4,0-6.2-2.8-6.2-6.2"/>
	<path class="st1" d="M64,45.4V30.5c0-3.4-2.8-6.2-6.2-6.2H33c-3.4,0-6.2,2.8-6.2,6.2v19.8c0,3.4,2.8,6.2,6.2,6.2h11.2l7.4,7.4v-7.4
		h6.2c3.4,0,6.2-2.8,6.2-6.2"/>
	<path class="st2" d="M39.2,19.4V8.2C39.2,4.8,36.4,2,33,2H8.2C4.8,2,2,4.8,2,8.2V28c0,3.4,2.8,6.2,6.2,6.2h6.2v7.4l7.4-7.4"/>
</g>
<g id="Layer_1-2">
	<path class="st3" d="M62.5,43.9V29c0-3.4-2.8-6.2-6.2-6.2H31.5c-3.4,0-6.2,2.8-6.2,6.2v19.8c0,3.4,2.8,6.2,6.2,6.2h11.2l7.4,7.4V55
		h6.2c3.4,0,6.2-2.8,6.2-6.2"/>
	<path class="st4" d="M37.7,17.9V6.7c0-3.4-2.8-6.2-6.2-6.2H6.7c-3.4,0-6.2,2.8-6.2,6.2v19.9c0,3.4,2.8,6.2,6.2,6.2h6.2v7.4l7.4-7.4
		"/>
	<polyline class="st4" points="26.5,11.4 16.6,21.3 11.6,16.4 	"/>
	<g>
		<line class="st4" x1="49.2" y1="34.2" x2="39.3" y2="44.1"/>
		<line class="st4" x1="39.3" y1="34.2" x2="49.2" y2="44.1"/>
	</g>
</g>
</svg>
