<?xml version="1.0" encoding="utf-8"?>
<!-- Generator: Adobe Illustrator 27.10.0, SVG Export Plug-In . SVG Version: 6.00 Build 0)  -->
<svg version="1.1" id="Layer_2_00000084511469175439983120000014834180648168891021_"
	 xmlns="http://www.w3.org/2000/svg" xmlns:xlink="http://www.w3.org/1999/xlink" x="0px" y="0px" viewBox="0 0 64 64"
	 style="enable-background:new 0 0 64 64;" xml:space="preserve">
<style type="text/css">
	.st0{fill:#3A5CFF;}
	.st1{fill:#FFFFFF;}
	.st2{fill:none;stroke:#6406C1;stroke-linecap:round;stroke-linejoin:round;}
	.st3{fill:none;stroke:#3A5CFF;stroke-linecap:round;stroke-linejoin:round;}
</style>
<g id="Layer_2-2">
	<path class="st0" d="M21.1,2h23.8C55.4,2,64,10.6,64,21.1v23.8C64,55.4,55.4,64,44.9,64H21.1C10.6,64,2,55.4,2,44.9V21.1
		C2,10.6,10.6,2,21.1,2z"/>
	<path class="st1" d="M22.4,6.1h20.2c9,0,16.2,7.3,16.2,16.2v20.2c0,9-7.3,16.2-16.2,16.2H22.4c-9,0-16.2-7.3-16.2-16.2V22.4
		C6.1,13.4,13.4,6.1,22.4,6.1z"/>
</g>
<g id="Layer_1-2">
	<path class="st2" d="M19.6,0.5h23.8c10.5,0,19.1,8.6,19.1,19.1v23.8c0,10.5-8.6,19.1-19.1,19.1H19.6c-10.5,0-19.1-8.6-19.1-19.1
		V19.6C0.5,9.1,9.1,0.5,19.6,0.5z"/>
	<path class="st2" d="M55.1,12.3c1.8,2.6,2.8,5.7,2.8,9.1v20.2c0,9-7.3,16.2-16.2,16.2H21.4c-9,0-16.2-7.3-16.2-16.2V21.4
		c0-9,7.3-16.2,16.2-16.2h20.2c2.8,0,5.4,0.7,7.7,2"/>
	<polyline class="st3" points="37.6,22.5 24.9,22.5 24.9,46.7 	"/>
	<line class="st3" x1="31.8" y1="34.6" x2="24.9" y2="34.6"/>
	<circle class="st3" cx="42.3" cy="19.4" r="2.5"/>
	<polyline class="st2" points="36.6,21.5 23.9,21.5 23.9,45.7 	"/>
	<line class="st2" x1="30.8" y1="33.6" x2="23.9" y2="33.6"/>
	<circle class="st2" cx="41.3" cy="18.5" r="2.5"/>
</g>
</svg>
