<?xml version="1.0" encoding="UTF-8"?>
<svg id="Layer_2" data-name="Layer 2" xmlns="http://www.w3.org/2000/svg" viewBox="0 0 64 64">
  <defs>
    <style>
      .cls-1 {
        stroke: #00e4a5;
      }

      .cls-1, .cls-2 {
        fill: none;
        stroke-linecap: round;
        stroke-linejoin: round;
      }

      .cls-2 {
        stroke: #6406c1;
      }

      .cls-3 {
        fill: #00e4a5;
        stroke-width: 0px;
      }
    </style>
  </defs>
  <g id="Layer_2-2" data-name="Layer 2">
    <path class="cls-3" d="m16.44,54.92c0,2.76-2.24,5-5,5s-5-2.24-5-5,2.24-5,5-5,5,2.24,5,5Z"/>
    <path class="cls-3" d="m43.57,54.92c0,2.76-2.24,5-5,5s-5-2.24-5-5,2.24-5,5-5,5,2.24,5,5Z"/>
    <g>
      <line class="cls-1" x1="51.01" y1="45.72" x2="63.5" y2="45.72"/>
      <line class="cls-1" x1="51.01" y1="38.73" x2="60.29" y2="38.73"/>
      <line class="cls-1" x1="51.01" y1="24.76" x2="60.29" y2="24.76"/>
      <line class="cls-1" x1="50.46" y1="17.77" x2="62.96" y2="17.77"/>
      <line class="cls-1" x1="51.01" y1="31.74" x2="63.5" y2="31.74"/>
      <line class="cls-1" x1="51.01" y1="10.78" x2="60.29" y2="10.78"/>
    </g>
  </g>
  <g id="Layer_1-2" data-name="Layer 1">
    <path class="cls-2" d="m17.23,46.31V7.29c0-3.75-3.04-6.79-6.79-6.79S3.65,3.54,3.65,7.29v39.02c-1.94,1.81-3.15,4.39-3.15,7.25,0,5.49,4.45,9.94,9.94,9.94s9.94-4.45,9.94-9.94c0-2.86-1.22-5.44-3.15-7.25Z"/>
    <path class="cls-2" d="m44.36,46.31V7.29c0-3.75-3.04-6.79-6.79-6.79s-6.79,3.04-6.79,6.79v39.02c-1.94,1.81-3.15,4.39-3.15,7.25,0,5.49,4.45,9.94,9.94,9.94s9.94-4.45,9.94-9.94c0-2.86-1.22-5.44-3.15-7.25Z"/>
    <g>
      <line class="cls-2" x1="50.01" y1="44.72" x2="62.5" y2="44.72"/>
      <line class="cls-2" x1="50.01" y1="37.73" x2="59.29" y2="37.73"/>
      <line class="cls-2" x1="50.01" y1="23.76" x2="59.29" y2="23.76"/>
      <line class="cls-2" x1="49.46" y1="16.77" x2="61.96" y2="16.77"/>
      <line class="cls-2" x1="50.01" y1="30.74" x2="62.5" y2="30.74"/>
      <line class="cls-2" x1="50.01" y1="9.78" x2="59.29" y2="9.78"/>
    </g>
    <path class="cls-3" d="m10.44,48.92c.88,0,1.69.25,2.41.64.06-.21.09-.42.09-.64V9.78c0-1.38-1.12-2.5-2.5-2.5s-2.5,1.12-2.5,2.5v39.15c0,.22.04.44.09.64.72-.4,1.53-.64,2.41-.64Z"/>
    <path class="cls-2" d="m15.44,53.92c0,2.76-2.24,5-5,5s-5-2.24-5-5,2.24-5,5-5,5,2.24,5,5Z"/>
    <path class="cls-3" d="m37.57,48.92c.88,0,1.69.25,2.41.64.05-.21.09-.42.09-.64v-11.19c0-1.38-1.12-2.5-2.5-2.5s-2.5,1.12-2.5,2.5v11.19c0,.22.04.44.09.64.72-.4,1.53-.64,2.41-.64Z"/>
    <path class="cls-2" d="m42.57,53.92c0,2.76-2.24,5-5,5s-5-2.24-5-5,2.24-5,5-5,5,2.24,5,5Z"/>
  </g>
</svg>