<?xml version="1.0" encoding="utf-8"?>
<!-- Generator: Adobe Illustrator 27.10.0, SVG Export Plug-In . SVG Version: 6.00 Build 0)  -->
<svg version="1.1" id="Layer_2_00000035507115952161998740000015123673983438677692_"
	 xmlns="http://www.w3.org/2000/svg" xmlns:xlink="http://www.w3.org/1999/xlink" x="0px" y="0px" viewBox="0 0 64 64"
	 style="enable-background:new 0 0 64 64;" xml:space="preserve">
<style type="text/css">
	.st0{fill:#3A5CFF;}
	.st1{fill:none;stroke:#3A5CFF;stroke-linecap:round;stroke-linejoin:round;}
	.st2{fill:none;stroke:#6406C1;stroke-linecap:round;stroke-linejoin:round;}
</style>
<g id="Layer_2-2">
	<path class="st0" d="M16.4,54.9c0,2.8-2.2,5-5,5s-5-2.2-5-5s2.2-5,5-5S16.4,52.2,16.4,54.9z"/>
	<path class="st0" d="M43.6,54.9c0,2.8-2.2,5-5,5s-5-2.2-5-5s2.2-5,5-5S43.6,52.2,43.6,54.9z"/>
	<g>
		<line class="st1" x1="51" y1="45.7" x2="63.5" y2="45.7"/>
		<line class="st1" x1="51" y1="38.7" x2="60.3" y2="38.7"/>
		<line class="st1" x1="51" y1="24.8" x2="60.3" y2="24.8"/>
		<line class="st1" x1="50.5" y1="17.8" x2="63" y2="17.8"/>
		<line class="st1" x1="51" y1="31.7" x2="63.5" y2="31.7"/>
		<line class="st1" x1="51" y1="10.8" x2="60.3" y2="10.8"/>
	</g>
</g>
<g id="Layer_1-2">
	<path class="st2" d="M17.2,46.3v-39c0-3.8-3-6.8-6.8-6.8s-6.8,3-6.8,6.8v39c-1.9,1.8-3.2,4.4-3.2,7.2c0,5.5,4.4,9.9,9.9,9.9
		s9.9-4.5,9.9-9.9C20.4,50.7,19.2,48.1,17.2,46.3z"/>
	<path class="st2" d="M44.4,46.3v-39c0-3.8-3-6.8-6.8-6.8s-6.8,3-6.8,6.8v39c-1.9,1.8-3.1,4.4-3.1,7.2c0,5.5,4.4,9.9,9.9,9.9
		s9.9-4.5,9.9-9.9C47.5,50.7,46.3,48.1,44.4,46.3z"/>
	<g>
		<line class="st2" x1="50" y1="44.7" x2="62.5" y2="44.7"/>
		<line class="st2" x1="50" y1="37.7" x2="59.3" y2="37.7"/>
		<line class="st2" x1="50" y1="23.8" x2="59.3" y2="23.8"/>
		<line class="st2" x1="49.5" y1="16.8" x2="62" y2="16.8"/>
		<line class="st2" x1="50" y1="30.7" x2="62.5" y2="30.7"/>
		<line class="st2" x1="50" y1="9.8" x2="59.3" y2="9.8"/>
	</g>
	<path class="st0" d="M10.4,48.9c0.9,0,1.7,0.2,2.4,0.6c0.1-0.2,0.1-0.4,0.1-0.6V9.8c0-1.4-1.1-2.5-2.5-2.5S7.9,8.4,7.9,9.8v39.2
		c0,0.2,0,0.4,0.1,0.6C8.8,49.2,9.6,48.9,10.4,48.9L10.4,48.9z"/>
	<path class="st2" d="M15.4,53.9c0,2.8-2.2,5-5,5s-5-2.2-5-5s2.2-5,5-5S15.4,51.2,15.4,53.9z"/>
	<path class="st0" d="M37.6,48.9c0.9,0,1.7,0.2,2.4,0.6c0-0.2,0.1-0.4,0.1-0.6V37.7c0-1.4-1.1-2.5-2.5-2.5s-2.5,1.1-2.5,2.5v11.2
		c0,0.2,0,0.4,0.1,0.6C35.9,49.2,36.7,48.9,37.6,48.9z"/>
	<path class="st2" d="M42.6,53.9c0,2.8-2.2,5-5,5s-5-2.2-5-5s2.2-5,5-5S42.6,51.2,42.6,53.9z"/>
</g>
</svg>
